<svg width="90" height="90" viewBox="0 0 90 90" fill="none" xmlns="http://www.w3.org/2000/svg">
<path d="M90 45C90 69.8528 69.8528 90 45 90C20.1472 90 0 69.8528 0 45C0 20.1472 20.1472 0 45 0C69.8528 0 90 20.1472 90 45Z" fill="url(#paint0_linear_59807_9)"/>
<path d="M29.6289 44.0234V38.6621H36.0098C37.0469 38.6621 37.5215 38.75 37.9434 38.9258C38.9629 39.3301 39.7188 40.1738 39.7188 41.3516C39.7188 42.5645 38.9277 43.373 37.9434 43.7773C37.5039 43.9531 37.0293 44.0234 36.0273 44.0234H29.6289ZM29.6289 59V48.8574H36.7129C38.8574 48.8574 40.3164 48.4355 41.5117 47.6797C43.5859 46.3789 44.9043 44.1113 44.9043 41.3516C44.9043 38.4863 43.5859 36.2539 41.5469 34.9883C40.334 34.2148 38.8574 33.8105 36.7129 33.8105H24.373V59H29.6289Z" fill="#00C4F0"/>
<path d="M46.8906 54.6406C50.3887 57.7695 54.2734 59 57.6309 59C63.0449 59 67.2461 55.7305 67.2461 51.2832C67.2461 45.5703 62.1133 44.1465 57.877 43.4434C54.3086 42.8457 52.2344 42.3711 52.2344 40.7188C52.2344 39.207 54.1855 38.5391 56.0312 38.5391C58.2988 38.5391 60.7422 39.3828 62.4121 40.7891L65.4004 37.0449C62.6055 34.8477 59.2832 33.7754 56.1016 33.7754C50.3535 33.7754 47.1367 37.0625 47.1367 41.1934C47.1367 45.2363 50.5117 46.9941 54.7305 47.873C58.4395 48.6465 62.0781 48.9453 62.0781 51.3008C62.0781 53.2344 59.6875 54.1133 57.543 54.1133C54.7832 54.1133 52.1465 52.7773 50.0547 50.8613L46.8906 54.6406Z" fill="#00C4F0"/>
<defs>
<linearGradient id="paint0_linear_59807_9" x1="0" y1="0" x2="96.7553" y2="83.157" gradientUnits="userSpaceOnUse">
<stop stop-color="#414141"/>
<stop offset="1" stop-color="#2D2D2D"/>
</linearGradient>
</defs>
</svg>
