<svg width="90" height="90" viewBox="0 0 90 90" fill="none" xmlns="http://www.w3.org/2000/svg">
<path d="M90 45C90 69.8528 69.8528 90 45 90C20.1472 90 0 69.8528 0 45C0 20.1472 20.1472 0 45 0C69.8528 0 90 20.1472 90 45Z" fill="url(#paint0_linear_59807_3)"/>
<path d="M29.1094 33.793V47.4688C29.1094 48.5762 29.2324 49.666 29.4785 50.6855C30.6562 55.5723 34.541 59.0176 40.0254 59.0176C45.5098 59.0176 49.377 55.5723 50.5547 50.6855C50.7832 49.666 50.9238 48.5762 50.9238 47.4688V33.793H45.668V47.5566C45.668 48.3652 45.5625 49.1562 45.3516 49.9121C44.7012 52.2676 42.9609 54.1484 40.0078 54.1484C37.0898 54.1484 35.3496 52.2676 34.6816 49.9121C34.4707 49.1562 34.3652 48.3652 34.3652 47.5566V33.793H29.1094Z" fill="#00C4F0"/>
<path d="M55.4238 59H60.6973V33.793H55.4238V59Z" fill="#00C4F0"/>
<defs>
<linearGradient id="paint0_linear_59807_3" x1="0" y1="0" x2="96.7553" y2="83.157" gradientUnits="userSpaceOnUse">
<stop stop-color="#414141"/>
<stop offset="1" stop-color="#2D2D2D"/>
</linearGradient>
</defs>
</svg>
