<svg width="90" height="90" viewBox="0 0 90 90" fill="none" xmlns="http://www.w3.org/2000/svg">
<path d="M90 45C90 69.8528 69.8528 90 45 90C20.1472 90 0 69.8528 0 45C0 20.1472 20.1472 0 45 0C69.8528 0 90 20.1472 90 45Z" fill="url(#paint0_linear_59807_12)"/>
<path d="M21.1094 33.793V47.4688C21.1094 48.5762 21.2324 49.666 21.4785 50.6855C22.6562 55.5723 26.541 59.0176 32.0254 59.0176C37.5098 59.0176 41.377 55.5723 42.5547 50.6855C42.7832 49.666 42.9238 48.5762 42.9238 47.4688V33.793H37.668V47.5566C37.668 48.3652 37.5625 49.1562 37.3516 49.9121C36.7012 52.2676 34.9609 54.1484 32.0078 54.1484C29.0898 54.1484 27.3496 52.2676 26.6816 49.9121C26.4707 49.1562 26.3652 48.3652 26.3652 47.5566V33.793H21.1094Z" fill="#00C4F0"/>
<path d="M44.998 59H51.4844L57.6719 49.9297L63.8594 59H70.3633L60.7129 45.6934L69.3262 33.8105H62.875L57.6719 41.4219L52.4688 33.8105H46.0176L54.6309 45.6934L44.998 59Z" fill="#00C4F0"/>
<defs>
<linearGradient id="paint0_linear_59807_12" x1="0" y1="0" x2="96.7553" y2="83.157" gradientUnits="userSpaceOnUse">
<stop stop-color="#414141"/>
<stop offset="1" stop-color="#2D2D2D"/>
</linearGradient>
</defs>
</svg>
