<svg width="90" height="90" viewBox="0 0 90 90" fill="none" xmlns="http://www.w3.org/2000/svg">
<path d="M90 45C90 69.8528 69.8528 90 45 90C20.1472 90 0 69.8528 0 45C0 20.1472 20.1472 0 45 0C69.8528 0 90 20.1472 90 45Z" fill="url(#paint0_linear_59808_43)"/>
<path d="M18.4167 44L30.0232 62L45.5 49L18.4167 44Z" stroke="#00C1EC" stroke-width="4" stroke-linecap="round" stroke-linejoin="round"/>
<path d="M72.5833 44L60.9768 62L45.5 49L72.5833 44Z" stroke="#00C1EC" stroke-width="4" stroke-linecap="round" stroke-linejoin="round"/>
<path d="M30.6042 62H60.3958L45.5 49L30.6042 62Z" stroke="#00C1EC" stroke-width="4" stroke-linecap="round" stroke-linejoin="round"/>
<path d="M29.25 46L45.5 24L61.75 46" stroke="#00C1EC" stroke-width="4" stroke-linejoin="round"/>
<defs>
<linearGradient id="paint0_linear_59808_43" x1="0" y1="0" x2="96.7553" y2="83.157" gradientUnits="userSpaceOnUse">
<stop stop-color="#414141"/>
<stop offset="1" stop-color="#2D2D2D"/>
</linearGradient>
</defs>
</svg>
